<?xml version="1.0" standalone="no"?>
<!DOCTYPE svg PUBLIC "-//W3C//DTD SVG 20010904//EN"
 "http://www.w3.org/TR/2001/REC-SVG-20010904/DTD/svg10.dtd">
<svg version="1.0" xmlns="http://www.w3.org/2000/svg"
 width="65.000000pt" height="64.000000pt" viewBox="0 0 65.000000 64.000000"
 preserveAspectRatio="xMidYMid meet">

<g transform="translate(0.000000,64.000000) scale(0.100000,-0.100000)"
fill="#000000" stroke="none">
<path d="M228 624 c-34 -18 -48 -43 -48 -87 0 -93 145 -107 165 -16 9 41 -11
86 -46 104 -34 18 -37 18 -71 -1z"/>
<path d="M490 530 c0 -5 5 -10 10 -10 6 0 10 5 10 10 0 6 -4 10 -10 10 -5 0
-10 -4 -10 -10z"/>
<path d="M554 449 c-9 -15 12 -33 30 -26 9 4 16 13 16 22 0 17 -35 21 -46 4z"/>
<path d="M43 423 c-29 -20 -32 -82 -5 -106 25 -23 74 -21 100 3 64 60 -23 154
-95 103z"/>
<path d="M567 323 c-11 -11 -8 -48 5 -61 30 -30 76 6 63 48 -6 20 -53 29 -68
13z"/>
<path d="M140 213 c-43 -16 -66 -74 -42 -109 10 -15 47 -34 67 -34 24 0 65 46
65 73 0 44 -51 84 -90 70z"/>
<path d="M487 182 c-35 -38 -10 -92 42 -92 36 0 51 17 51 57 0 50 -59 72 -93
35z"/>
<path d="M325 105 c-29 -28 -31 -42 -9 -73 29 -42 104 -16 104 36 0 16 -45 62
-60 62 -6 0 -22 -11 -35 -25z"/>
</g>
</svg>
